<svg width="44" height="44" viewBox="0 0 44 44" fill="none" xmlns="http://www.w3.org/2000/svg">
  <defs>
    <radialGradient id="a" cx="0" cy="0" r="1" gradientTransform="translate(18 14) rotate(55) scale(35)">
      <stop stop-color="#FBFFF8"/>
      <stop offset="1" stop-color="#E3F1E8"/>
    </radialGradient>
    <linearGradient id="b" x1="12" y1="5" x2="22" y2="20" gradientUnits="userSpaceOnUse">
      <stop stop-color="#78A66F"/>
      <stop offset="1" stop-color="#3E725A"/>
    </linearGradient>
    <linearGradient id="c" x1="31" y1="5" x2="22" y2="20" gradientUnits="userSpaceOnUse">
      <stop stop-color="#5D9166"/>
      <stop offset="1" stop-color="#285E4A"/>
    </linearGradient>
    <filter id="d" x="7" y="7" width="31" height="34" filterUnits="userSpaceOnUse">
      <feDropShadow dx="0" dy="2" stdDeviation="1.5" flood-color="#214C3E" flood-opacity=".18"/>
    </filter>
  </defs>
  <circle cx="22" cy="22" r="22" fill="url(#a)"/>
  <circle cx="10" cy="10" r="2" fill="#D6E9D8" opacity=".8"/>
  <circle cx="35" cy="30" r="2.5" fill="#D6E9D8" opacity=".75"/>
  <g filter="url(#d)">
    <path d="M21 17C16.8 12.8 13.2 7.9 12.7 4.5c4.8.3 9.7 3.2 11.1 8.2L21 17Z" fill="url(#b)"/>
    <path d="M22.8 17c4.4-4.2 7.8-9.1 8.1-12.5-4.7.5-9.4 3.4-10.7 8.4l2.6 4.1Z" fill="url(#c)"/>
    <path d="M22 14.4c-7.4 0-12.1 5.7-12.1 13.1 0 6.5 4.8 10.2 12.1 10.2s12.1-3.7 12.1-10.2c0-7.4-4.7-13.1-12.1-13.1Z" fill="#FFF9E9"/>
    <ellipse cx="17.2" cy="26.2" rx="1.35" ry="1.8" fill="#203D34"/>
    <ellipse cx="26.8" cy="26.2" rx="1.35" ry="1.8" fill="#203D34"/>
    <path d="M19.7 29.3c.8 1 1.5 1.4 2.3 1.4s1.5-.4 2.3-1.4" stroke="#855E53" stroke-width="1.2" stroke-linecap="round"/>
    <ellipse cx="14.3" cy="29" rx="2" ry="1.25" fill="#F4CFC0" opacity=".8"/>
    <ellipse cx="29.7" cy="29" rx="2" ry="1.25" fill="#F4CFC0" opacity=".8"/>
  </g>
</svg>
